<svg xmlns="http://www.w3.org/2000/svg" viewBox="0 0 1200 630" role="img" aria-labelledby="title desc">
  <title id="title">CRAM2Excel Social Card</title>
  <desc id="desc">Promotional banner for the CRAM2Excel repository.</desc>
  <defs>
    <linearGradient id="card" x1="0%" y1="0%" x2="100%" y2="100%">
      <stop offset="0%" stop-color="#ecfeff"/>
      <stop offset="45%" stop-color="#f8fafc"/>
      <stop offset="100%" stop-color="#dbeafe"/>
    </linearGradient>
    <linearGradient id="tile" x1="0%" y1="0%" x2="100%" y2="100%">
      <stop offset="0%" stop-color="#115e59"/>
      <stop offset="100%" stop-color="#1d4ed8"/>
    </linearGradient>
  </defs>

  <rect width="1200" height="630" fill="url(#card)"/>
  <circle cx="1040" cy="120" r="170" fill="#bfdbfe" opacity="0.35"/>
  <circle cx="120" cy="530" r="170" fill="#a7f3d0" opacity="0.45"/>

  <g transform="translate(90 130)">
    <rect x="0" y="0" width="260" height="260" rx="34" fill="url(#tile)"/>
    <path d="M44 70h172M44 118h172M44 166h172M44 214h172" stroke="#e2e8f0" stroke-width="12" stroke-linecap="round" opacity="0.9"/>
    <path d="M96 40v200M164 40v200" stroke="#e2e8f0" stroke-width="12" stroke-linecap="round" opacity="0.6"/>
    <path d="M30 118c36-46 82-46 118 0s82 46 118 0" fill="none" stroke="#fde047" stroke-width="16" stroke-linecap="round"/>
    <path d="M30 162c36 46 82 46 118 0s82-46 118 0" fill="none" stroke="#fb7185" stroke-width="16" stroke-linecap="round"/>
  </g>

  <g transform="translate(410 150)" fill="#0f172a">
    <text x="0" y="90" font-family="Avenir Next, Helvetica Neue, Arial, sans-serif" font-size="96" font-weight="800" letter-spacing="-3">CRAM2Excel</text>
    <text x="4" y="155" font-family="Avenir Next, Helvetica Neue, Arial, sans-serif" font-size="36" font-weight="700" fill="#0f766e">SAMtools plugin for native Excel exports</text>
    <text x="4" y="228" font-family="Avenir Next, Helvetica Neue, Arial, sans-serif" font-size="30" fill="#334155">Turn `samtools view -h` into a workbook with alignment sheets and headers.</text>
    <text x="4" y="286" font-family="Avenir Next, Helvetica Neue, Arial, sans-serif" font-size="28" fill="#334155">C. HTSlib-native. No spreadsheet runtime dependency.</text>
  </g>
</svg>
